<svg width="36" height="36" viewBox="0 0 36 36" fill="none" xmlns="http://www.w3.org/2000/svg">
<path d="M31.5 28.5V18.4005C31.5 17.5867 31.3344 16.7814 31.0134 16.0336C30.6923 15.2857 30.2225 14.611 29.6325 14.0505L20.067 4.96502C19.5095 4.43535 18.7698 4.14001 18.0007 4.14001C17.2317 4.14001 16.492 4.43535 15.9345 4.96502L6.3675 14.0505C5.77748 14.611 5.30765 15.2857 4.98661 16.0336C4.66556 16.7814 4.5 17.5867 4.5 18.4005V28.5C4.5 29.2957 4.81607 30.0587 5.37868 30.6213C5.94129 31.1839 6.70435 31.5 7.5 31.5H28.5C29.2956 31.5 30.0587 31.1839 30.6213 30.6213C31.1839 30.0587 31.5 29.2957 31.5 28.5Z" stroke="white" stroke-width="2" stroke-linecap="round" stroke-linejoin="round"/>
<path d="M13.5 22.5C13.5 21.7044 13.8161 20.9413 14.3787 20.3787C14.9413 19.8161 15.7044 19.5 16.5 19.5H19.5C20.2956 19.5 21.0587 19.8161 21.6213 20.3787C22.1839 20.9413 22.5 21.7044 22.5 22.5V31.5H13.5V22.5Z" stroke="white" stroke-width="2" stroke-linecap="round" stroke-linejoin="round"/>
</svg>
