<svg width="234" height="153" viewBox="0 0 234 153" fill="none" xmlns="http://www.w3.org/2000/svg">
    <path
        d="M148.835 0H85.162C82.6679 0 80.6454 2.01639 80.6454 4.50332V67.9889C80.6454 70.474 82.6645 72.4923 85.162 72.4923H148.835C151.329 72.4923 153.352 70.4759 153.352 67.9889V4.50332C153.352 2.01656 151.333 0 148.835 0ZM93.4396 45.8295C93.4397 45.8292 93.4399 45.8288 93.4402 45.8285L115.589 23.7446C116.37 22.9663 117.633 22.9663 118.414 23.7446L137.139 42.4145C138.401 43.6736 137.51 45.8307 135.727 45.8308L93.4418 45.8323C93.4403 45.8323 93.4393 45.8309 93.4396 45.8295V45.8295ZM148.834 80.5061C148.834 80.5061 148.834 80.5065 148.834 80.5065H85.162C82.6679 80.5065 80.6488 82.5229 80.6488 85.0098V148.495C80.6488 150.981 82.6679 152.995 85.162 152.995H148.835C151.329 152.995 153.352 150.982 153.352 148.495L153.35 85.0057C153.348 82.5227 151.33 80.5065 148.834 80.5057C148.833 80.5057 148.833 80.506 148.834 80.5061V80.5061ZM118.412 130.811C117.631 131.589 116.368 131.589 115.587 130.81L96.8638 112.14C95.6011 110.881 96.4928 108.724 98.276 108.724H135.728C137.512 108.724 138.403 110.882 137.14 112.141L118.412 130.811ZM68.1896 80.5065H4.51661C2.02418 80.5065 0 82.5229 0 85.0098V148.495C0 150.982 2.02234 153 4.51661 153H68.1896C70.682 153 72.7028 150.984 72.7028 148.495V85.0098C72.7028 82.523 70.6805 80.5065 68.1896 80.5065ZM44.7324 135.424C44.7324 137.205 42.5811 138.098 41.3203 136.841L22.5896 118.166C21.8058 117.385 21.8058 116.115 22.5896 115.334L41.3203 96.6596C42.5811 95.4026 44.7324 96.2956 44.7324 98.0759V135.424ZM229.483 80.5053C229.483 80.5059 229.483 80.5065 229.482 80.5065H165.81C163.318 80.5065 161.294 82.5229 161.294 85.0098V148.495C161.294 150.981 163.316 152.999 165.81 152.999L229.483 152.997C231.977 152.997 234 150.981 234 148.494V85.004C234 82.521 231.982 80.5047 229.485 80.504C229.484 80.504 229.483 80.5046 229.483 80.5053V80.5053ZM193.062 136.841C191.801 138.098 189.65 137.205 189.65 135.424V98.0778C189.65 96.2974 191.801 95.4045 193.062 96.6615L211.791 115.335C212.575 116.117 212.575 117.387 211.791 118.168L193.062 136.841Z"
        fill="#FFFBFE" />
</svg>
    