<svg width="644" height="650" viewBox="0 0 644 650" fill="none" xmlns="http://www.w3.org/2000/svg">
    <g clip-path="url(#clip0_78_2)">
    <path fill-rule="evenodd" clip-rule="evenodd" d="M210.084 75.1994C201.506 78.3796 196.569 76.8349 191.957 75.1994C196.165 74.109 200.535 75.5628 203.772 73.0187C198.593 73.3821 194.223 70.9288 190.177 69.2024C191.715 68.8389 194.061 69.2024 195.922 68.0212C189.368 67.476 186.211 62.0242 182.246 60.7521C187.182 56.5724 191.39 59.0258 196.812 50.3028C200.292 51.1206 202.801 51.1206 204.824 50.3028C202.396 50.0303 200.212 49.8486 198.836 48.3948C202.962 48.5765 207.171 47.2135 211.459 48.3948C208.061 45.4871 203.044 46.3957 200.049 43.9424C214.777 26.7693 233.633 9.95963 255.968 2.87231C267.379 -0.762227 285.344 -0.39879 294.731 0.96416C298.292 6.41595 296.754 13.3215 293.598 19.5912C299.991 13.3215 298.777 8.32406 298.615 2.96313C300.719 7.68802 301.69 13.3215 299.829 19.0459C307.274 17.4104 313.829 22.1353 320.141 29.4952C335.597 47.4861 334.06 65.5679 344.58 80.5603C328.638 84.74 305.655 73.5639 297.725 73.473C310.673 76.9258 326.129 87.1934 342.233 83.5588C343.447 89.5558 346.279 96.4612 347.494 102.458C342.315 103.458 335.759 107.274 330.338 107.91C311.806 110.091 308.568 92.4634 294.003 86.0121C286.315 82.6502 278.384 84.9217 274.257 100.187C273.124 104.276 273.529 109.091 273.69 113.362C270.615 112.362 268.916 103.64 257.02 97.5517C253.298 95.6432 249.737 94.7347 246.338 91.0096C247.066 87.1024 241.968 83.377 243.991 80.0151C250.06 76.0172 261.147 74.7451 271.02 73.6547C259.933 73.2912 250.141 74.4725 242.859 78.107C241.644 69.5658 239.945 59.9344 243.02 50.3028C252.488 39.1267 266.569 34.7653 280.327 29.9495C265.679 33.5841 253.54 37.582 241.24 45.4871C239.702 47.6679 237.275 51.8475 236.222 54.846C228.696 58.7531 220.281 65.7496 210.084 75.1994Z" fill="white"/>
    <path fill-rule="evenodd" clip-rule="evenodd" d="M239.136 55.9364C229.263 60.4796 219.633 67.3852 212.35 74.9268C212.755 87.5569 214.534 99.3688 218.339 110.545C219.795 114.907 222.708 118.359 224.489 122.539C225.055 123.993 225.298 125.628 225.298 127.264C225.298 133.806 224.732 140.348 224.569 146.891C224.489 148.98 224.974 151.433 226.754 152.07C229.749 153.069 235.09 152.978 239.217 153.432C238.003 153.796 236.87 154.068 235.656 154.341C236.546 158.158 236.627 161.065 236.304 163.7C237.355 164.791 238.65 165.972 241.563 166.698C243.83 167.244 246.257 167.334 248.442 168.334C249.009 168.607 249.17 169.515 249.575 170.061C247.795 169.879 246.014 169.607 244.315 169.333C243.101 170.243 243.425 172.15 244.153 173.15C245.205 174.785 247.31 175.24 248.927 176.33C251.922 179.238 251.436 183.872 253.055 187.415C253.945 189.324 254.592 191.959 256.373 192.685C262.28 195.048 272.881 194.412 274.985 191.141C281.783 180.692 286.881 172.514 290.846 159.157C289.632 168.425 284.453 178.693 278.951 188.869C289.875 182.6 301.69 184.508 315.043 179.601C313.262 182.6 309.378 183.417 306.465 184.508C314.881 187.869 321.355 195.593 327.263 202.226C329.609 191.232 333.818 180.6 340.696 171.424C348.222 161.338 354.291 147.799 357.852 129.99C358.661 124.538 359.551 119.087 360.442 113.635C354.372 112.272 348.95 110.273 345.227 104.639C340.048 108.001 335.031 109.182 329.367 109.909C320.384 110.909 311.563 102.55 302.095 93.7358C299.182 91.0096 296.107 88.738 293.275 87.3751C295.702 89.7375 299.182 94.19 300.558 98.4603C301.933 102.912 301.447 109.273 300.153 113.817C298.858 118.451 296.107 118.723 293.275 124.357C292.546 125.902 289.795 125.083 288.338 123.175C289.066 126.446 289.714 131.08 289.714 134.714C288.985 129.263 287.853 123.993 285.991 119.45C288.338 122.176 291.737 124.992 292.87 122.266C295.459 116.36 297.725 117.088 298.939 112.908C300.234 108.455 300.071 102.822 298.939 98.3698C297.968 94.2805 295.216 90.1919 293.193 87.3751C290.28 86.0121 287.528 85.6487 285.263 86.6482C280.164 88.9198 277.575 95.3709 273.772 99.7326C273.447 102.095 273.205 103.367 272.962 105.821C273.529 108.455 273.934 112.18 275.066 114.453C276.118 116.814 271.83 114.361 269.968 111.999C266.731 107.91 263.656 104.367 259.691 101.095C255.482 97.7336 249.899 95.0071 245.286 92.373C245.691 87.3751 241.563 85.0126 240.512 79.0156C239.298 71.3831 238.974 63.5689 239.136 55.9364ZM240.835 121.54C239.379 124.447 238.083 125.538 236.222 127.082C235.413 127.809 238.893 130.172 239.298 132.171C240.188 135.896 238.812 140.803 239.621 144.164C239.055 143.892 238.326 141.983 238.408 140.803C238.569 137.895 239.459 134.896 238.731 132.08C238.246 130.08 234.523 128.081 235.251 127.173C237.355 124.629 238.003 122.539 240.835 121.54ZM241.645 118.723C240.755 119.087 240.35 119.723 239.298 119.813C235.818 120.177 232.743 119.631 230.072 120.449C229.829 119.723 229.749 118.723 229.911 117.542C230.234 117.905 230.315 118.905 230.8 118.905C235.333 118.632 238.569 119.359 241.645 118.723Z" fill="white"/>
    <path fill-rule="evenodd" clip-rule="evenodd" d="M347.169 92.554C347.898 96.7337 348.95 100.187 350.407 102.731C349.759 103.64 349.111 104.457 348.465 105.366C352.429 108.546 356.719 109.819 360.279 110.636C360.037 105.457 357.447 99.5507 352.591 101.277C362.141 95.2805 362.464 109.364 361.898 114.543C360.441 126.628 358.984 140.166 354.291 151.888C349.354 164.155 340.372 174.059 334.707 185.962C332.199 191.232 331.471 197.411 329.852 203.044C330.58 208.404 331.389 213.766 332.037 219.127C332.36 222.126 331.389 224.306 329.609 225.487C328.8 218.309 328.152 211.04 325.805 204.588C318.927 196.502 310.835 189.324 302.742 185.326C302.095 185.416 301.447 185.508 300.8 185.598C302.418 191.777 302.904 199.864 302.257 205.497C309.539 201.863 320.87 202.681 323.459 206.769C316.742 204.68 309.216 205.407 300.233 208.86C301.124 201.681 300.557 193.867 297.806 185.962C296.187 186.144 294.488 186.416 292.627 186.689C285.991 187.779 281.864 189.868 278.06 191.868C275.471 194.321 273.043 196.593 269.078 197.137C264.222 197.865 257.181 197.501 253.298 194.23C250.141 191.595 249.575 183.963 247.39 180.056C244.315 182.873 242.615 183.963 240.43 187.688C239.54 189.051 239.783 192.413 238.488 193.685C231.853 199.864 224.65 204.407 218.257 210.949C215.667 213.494 212.997 217.128 211.541 220.489C215.425 216.946 221.737 216.946 228.211 218.128C233.714 219.127 240.187 221.58 243.587 223.67C249.089 229.485 254.592 235.391 260.095 241.206C309.944 242.842 358.661 243.66 408.591 245.204C418.14 248.748 433.273 255.654 439.909 256.471C436.267 249.294 429.874 240.57 425.585 235.754C420.163 229.485 417.412 224.215 415.389 218.218C415.389 206.315 415.065 195.684 415.065 183.781C425.423 169.152 432.221 142.892 442.903 136.987C440.961 130.898 434.487 128.355 430.036 126.991C412.071 121.268 396.452 123.175 377.354 116.36C376.545 130.626 376.788 144.982 374.846 159.157C373.146 171.696 369.343 183.872 366.592 196.229C353.887 194.23 341.828 193.503 333.17 199.5C339.32 191.413 351.54 191.504 365.459 193.867C367.643 181.6 370.638 169.515 371.932 157.067C373.551 142.529 374.361 127.809 374.118 113.089C374.036 107.82 371.932 102.368 368.048 99.8231C361.493 95.5528 354.129 94.0986 347.169 92.554Z" fill="white"/>
    <path fill-rule="evenodd" clip-rule="evenodd" d="M244.72 222.398C234.442 220.489 222.546 219.036 215.264 220.581C212.512 221.216 212.188 222.488 209.599 223.67C197.055 229.213 188.397 234.391 179.171 240.025C178.038 240.662 177.714 242.206 177.553 243.932C181.356 244.75 188.397 246.567 196.651 251.474C211.055 260.015 218.985 270.827 229.02 281.186C212.026 265.921 194.79 248.293 174.316 245.75C169.298 249.202 164.2 252.565 158.373 254.564C169.298 255.563 180.871 259.016 192.361 266.375C211.784 278.824 218.985 289.727 227.159 300.268C230.477 298.087 233.795 296.633 237.112 295.452C238.488 295.634 239.784 296.451 241.483 295.724C254.269 290 264.708 287.91 275.633 285.729C274.014 284.549 272.396 282.368 270.777 281.186C265.922 281.004 260.986 282.822 256.292 281.459C248.523 279.369 241.806 274.371 233.876 272.1C244.072 272.282 254.997 282.276 268.107 278.733C264.87 274.825 261.309 271.191 258.477 266.921C254.835 261.651 255.725 257.38 256.049 253.291C256.858 258.743 258.962 263.922 263.008 268.192C269.24 274.735 275.794 282.822 282.349 288.909C305.737 310.626 328.8 325.8 351.135 350.333C352.753 352.15 353.967 354.694 354.372 357.148C338.997 340.611 323.297 326.89 305.332 313.261C314.395 324.074 320.384 336.522 329.609 346.516C346.118 364.417 346.846 375.502 360.36 382.317C371.366 387.86 383.666 389.132 395.401 392.584C386.418 377.592 377.516 362.599 368.534 347.607C365.297 343.881 361.331 340.974 358.823 336.249C356.881 332.614 351.863 328.254 348.627 323.892C347.169 321.893 344.742 310.717 345.227 303.993C344.742 301.812 344.176 301.721 343.123 299.54C330.014 299.904 299.343 286.91 288.581 272.918C287.528 271.645 286.477 270.465 286.719 268.556L287.043 265.013C289.228 256.017 314.719 251.655 328.476 254.472C346.441 258.107 365.701 271.009 369.343 279.096C369.505 275.735 372.175 274.099 373.632 275.189C380.753 278.46 386.013 277.824 389.493 280.914C394.915 285.638 400.985 289.183 408.025 292.18C412.88 294.271 415.712 297.269 423.401 305.538C434.164 306.809 443.793 306.174 456.175 303.993C458.198 303.629 461.92 304.629 464.106 308.263C467.827 308.081 478.996 306.901 481.99 305.446C477.134 301.267 467.909 284.457 464.267 283.549C457.551 281.822 447.435 268.374 444.198 262.105C428.66 255.835 418.707 252.201 403.655 242.933C358.095 241.116 312.453 239.389 266.812 237.663C259.528 232.574 252.084 227.486 244.72 222.398Z" fill="white"/>
    <path fill-rule="evenodd" clip-rule="evenodd" d="M445.574 139.622C439.181 144.528 434.487 150.525 431.169 158.612C426.476 169.788 419.435 178.239 412.395 187.779C412.799 199.228 413.123 210.677 413.528 222.034C420.325 228.031 426.718 234.483 432.869 241.206C440.475 249.566 452.776 268.011 460.14 276.825C461.92 279.005 464.915 279.005 466.856 278.642C468.313 279.823 469.689 282.004 472.036 286.093C473.088 287.365 475.596 287.092 476.972 286.638C490.406 281.914 503.92 277.098 515.33 265.376C515.33 260.379 515.33 252.837 514.522 247.839C518.405 250.293 520.267 255.29 522.937 258.562C529.897 253.2 535.399 244.387 537.908 237.209C534.671 232.665 532.729 229.939 529.492 225.396C530.382 222.852 529.816 220.399 528.278 217.672C516.787 197.865 498.903 169.879 487.493 160.065C481.909 158.612 475.353 157.704 469.851 160.974C461.839 165.699 455.932 172.877 450.025 181.873C455.123 172.242 459.816 164.245 468.718 159.157C472.198 157.158 479.158 156.613 483.042 157.067C472.198 146.981 459.897 139.804 445.574 139.622Z" fill="white"/>
    <path fill-rule="evenodd" clip-rule="evenodd" d="M535.4 249.202C531.839 253.836 528.198 258.47 523.019 262.741C521.4 260.197 519.458 257.653 517.435 255.2C518.406 259.106 518.648 263.014 518.325 266.921C504.001 278.915 489.597 285.548 475.192 289.818C482.233 301.721 484.822 300.994 493.805 306.628C501.735 305.084 510.151 305.72 518.325 308.263C523.504 309.899 528.845 315.805 533.943 317.713C528.116 316.351 523.099 311.353 518.082 310.262C509.666 308.536 502.706 307.445 494.209 308.718C484.498 310.172 474.787 310.626 464.995 311.262C470.579 326.618 470.337 341.882 464.429 357.329C482.071 364.144 500.359 371.959 518.648 376.229C531.678 379.228 543.169 375.321 552.232 370.414L497.527 325.981L522.29 326.981L555.874 344.427L550.371 308.355L526.822 268.466L549.723 284.275C544.464 268.92 543.654 263.468 535.4 249.202Z" fill="white"/>
    <path fill-rule="evenodd" clip-rule="evenodd" d="M462.406 311.625C461.272 308.718 458.927 306.446 457.308 306.537C448.568 309.354 440.232 309.718 431.412 308.718C429.47 308.445 428.175 309.718 427.609 312.353C428.741 313.534 429.551 314.17 431.735 315.26C434.002 315.442 437.886 327.98 436.348 337.704C435.053 345.972 430.522 352.877 426.233 355.876C424.614 355.966 423.158 355.694 421.62 355.784C422.187 358.783 424.047 362.236 425.99 362.418C436.834 363.417 448.001 364.144 456.013 362.418C458.36 361.963 460.949 360.056 461.839 358.057C468.475 342.61 468.152 326.981 462.406 311.625Z" fill="white"/>
    <path fill-rule="evenodd" clip-rule="evenodd" d="M431.412 317.35C433.84 321.439 435.539 329.98 434.568 336.159C433.516 342.701 430.441 349.879 425.666 353.786C412.799 352.787 399.527 352.696 386.256 351.242C380.834 350.696 373.713 346.88 370.557 343.882C374.684 337.43 379.297 332.07 380.511 323.438C378.325 331.979 373.713 337.067 369.262 342.792C365.216 339.884 363.759 338.794 361.574 334.705C359.875 331.525 355.505 328.344 351.863 324.346C350.245 322.62 347.574 314.26 346.846 308.355C346.603 307.083 346.846 305.356 347.817 305.266C349.274 308.809 351.54 314.352 353.239 315.805C357.285 319.168 361.331 324.437 364.649 328.526C361.817 324.256 358.418 318.44 354.534 314.624C352.834 312.989 348.383 304.538 345.875 299.359C347.655 299.359 350.002 298.723 351.702 298.723C354.21 301.63 354.858 303.175 357.367 305.72C359.794 308.263 366.996 316.532 369.828 319.712C366.915 314.442 360.927 307.355 357.367 302.63C354.129 298.087 351.62 294.18 348.545 286.82C345.713 280.096 342.152 273.372 347.979 274.644C352.268 275.553 357.933 282.822 361.25 289.909C368.291 297.633 371.447 301.449 377.111 309.536C382.048 312.171 388.441 316.805 393.459 319.44C402.117 321.711 408.429 315.078 408.268 309.808C407.378 305.084 402.684 302.721 397.181 300.722C392.002 298.269 386.741 295.816 381.562 293.362C377.516 291.454 375.25 289.091 372.256 284.367C370.638 281.732 371.852 276.825 374.036 277.279C374.198 277.279 380.349 280.277 385.933 282.095C389.17 283.186 391.435 286.638 395.805 289.001C400.418 291.636 403.331 292.454 408.025 294.725C411.909 296.542 419.192 304.175 423.724 310.99C425.747 313.988 428.498 315.714 431.412 317.35Z" fill="white"/>
    <path fill-rule="evenodd" clip-rule="evenodd" d="M366.997 345.699C369.99 347.426 373.551 351.332 378.649 352.605C389.736 355.24 406.892 355.422 418.141 355.966C419.597 360.419 421.459 364.144 424.209 365.326C431.412 366.325 442.741 366.325 449.863 365.871C456.66 365.508 461.597 364.962 463.135 361.418C472.198 364.872 481.261 368.233 490.244 371.686C498.903 380.045 507.562 388.496 516.139 396.855L495.747 399.853L467.424 381.681C457.956 379.864 448.568 378.046 439.1 376.229C470.417 397.4 501.654 418.662 532.972 439.833C501.412 432.564 469.851 425.296 438.29 418.027C429.551 407.486 418.545 398.763 395.401 392.584C387.47 387.314 378.569 381.135 370.638 375.865C369.829 366.234 367.806 355.33 366.997 345.699Z" fill="white"/>
    <path fill-rule="evenodd" clip-rule="evenodd" d="M219.228 294.997C200.212 272.282 183.622 261.741 162.177 258.652C158.211 260.197 154.004 265.013 149.148 264.195C154.975 267.648 158.94 270.192 161.206 272.827C163.876 276.189 168.003 277.824 172.859 278.733C169.299 279.46 165.737 281.005 160.235 275.371C148.339 263.377 138.385 264.558 126.247 266.375C120.743 267.193 114.593 271.373 109.091 272.282C98.8128 274.008 86.5931 274.553 76.559 273.463C78.1776 275.281 79.7962 277.37 81.01 279.641C88.4545 283.731 99.7032 286.274 108.2 286.91C99.0555 287.728 87.4835 284.457 82.3858 282.822C83.114 285.366 83.2753 288.183 82.3043 291C81.1721 285.185 80.3624 279.187 75.1026 274.917C72.6742 272.918 68.5475 271.101 63.6111 269.465C66.8483 269.828 70.0846 270.192 72.9985 271.464C71.1371 267.103 67.0096 263.195 62.478 259.198C61.5876 263.74 61.6692 268.193 61.9119 272.736C63.9345 275.643 67.9814 278.188 71.2992 281.55C73.7267 283.912 73.8073 286.547 72.513 288.455C68.062 290.636 63.6111 292.908 59.1602 295.088C62.6401 298.541 69.3564 301.721 74.2122 301.54C77.6106 301.358 79.3107 300.631 81.8188 295.906C82.5471 299.087 80.6857 301.358 77.6106 303.175C80.2002 305.356 82.9519 306.264 86.3504 306.628C87.8884 306.81 89.0215 306.355 90.1546 304.72C91.1256 305.901 89.507 308.445 88.7787 308.99C103.588 313.534 119.206 319.985 134.339 322.892C144.05 324.71 153.922 325.346 161.206 317.623C165.009 313.624 168.57 306.174 171.807 305.356C168.246 309.263 165.737 313.806 164.2 318.349C170.512 313.897 176.905 312.171 183.218 311.08C196.651 308.809 207.656 301.176 219.228 294.997Z" fill="white"/>
    <path fill-rule="evenodd" clip-rule="evenodd" d="M435.296 413.483C425.747 408.304 416.117 401.126 405.921 397.855C392.326 393.584 381.482 393.766 361.493 386.315C367.239 393.221 372.58 397.673 379.782 403.216C381.644 404.579 380.106 407.759 381.401 408.213C388.846 411.03 393.539 411.212 401.389 411.212C396.048 412.12 390.384 413.756 380.996 411.212C379.215 410.758 378.569 412.575 378.164 413.119C380.429 416.663 384.395 420.388 388.684 423.842C396.696 430.293 406.002 432.928 414.418 436.199C406.973 434.472 399.609 434.018 387.551 426.204C381.724 422.387 377.597 417.481 375.332 413.393C374.036 414.119 372.418 415.3 371.771 417.753C371.123 420.48 371.528 422.479 370.718 425.659C370.152 428.385 366.43 430.384 366.592 433.928C367.077 434.927 368.453 437.017 370.881 437.653C412.071 448.738 437.805 469.637 462.973 494.352L507.967 501.167L452.129 462.004L472.603 463.004L524.556 489.445L450.348 429.657L490.487 441.923L435.296 413.483Z" fill="white"/>
    <path fill-rule="evenodd" clip-rule="evenodd" d="M426.151 462.822C406.811 452.554 387.308 443.558 366.835 439.198C337.944 452.736 315.123 469.001 296.106 487.083C308.002 492.079 319.898 499.349 331.713 508.254C317.47 500.349 305.251 494.715 295.054 491.353C291.413 492.988 288.338 494.987 285.91 497.35C310.754 506.618 334.626 527.971 358.175 548.87C347.412 543.327 335.921 535.604 325.158 532.695C339.482 540.328 356.557 559.046 374.361 580.399L366.835 554.321L402.441 562.772L334.464 493.716L372.66 496.259L428.337 511.343C431.655 512.252 366.268 470.726 366.268 470.726L400.823 475.542L443.389 497.35C432.464 486.628 421.459 475.997 410.533 465.275C415.712 464.457 420.892 463.639 426.151 462.822Z" fill="white"/>
    <path fill-rule="evenodd" clip-rule="evenodd" d="M287.61 507.436C298.454 511.978 309.298 518.793 320.141 527.335C313.586 528.243 306.951 529.153 300.396 530.06C287.367 541.055 274.338 551.959 261.39 562.862C257.344 574.856 277.17 571.13 302.014 597.117C282.269 589.848 262.603 580.853 242.859 580.49C239.702 582.852 237.679 594.846 240.43 599.208C246.905 610.565 250.385 618.016 256.858 629.465C247.471 616.562 240.188 607.022 230.153 597.391C231.043 584.488 234.523 576.765 237.922 568.768C240.43 562.59 241.644 556.865 245.691 551.777C258.477 535.694 273.609 522.246 287.61 507.436Z" fill="white"/>
    <path fill-rule="evenodd" clip-rule="evenodd" d="M519.457 594.301L406.325 528.879H432.06L519.457 594.301Z" fill="white"/>
    <path fill-rule="evenodd" clip-rule="evenodd" d="M455.204 564.68L437.157 554.594L388.037 591.483L455.204 564.68Z" fill="white"/>
    <path fill-rule="evenodd" clip-rule="evenodd" d="M543.492 413.937L549.562 430.929L525.284 411.666L543.492 413.937Z" fill="white"/>
    <path fill-rule="evenodd" clip-rule="evenodd" d="M560.648 463.913L592.209 504.801L571.816 494.987L559.677 479.814L503.03 450.283L552.556 468.455L560.648 463.913Z" fill="white"/>
    <path fill-rule="evenodd" clip-rule="evenodd" d="M627.006 579.763L568.902 551.687L560.082 555.048L512.255 526.88L581.446 583.125H600.544L644 611.201L601.272 576.492L627.006 579.763Z" fill="white"/>
    <path fill-rule="evenodd" clip-rule="evenodd" d="M309.944 607.84L331.228 612.019L327.586 616.926L365.864 650L309.944 607.84Z" fill="white"/>
    <path fill-rule="evenodd" clip-rule="evenodd" d="M72.6388 287.737C72.6388 284.738 71.2629 283.285 69.8065 281.74C66.8935 278.469 63.2514 276.198 60.0151 273.471C57.8295 271.11 56.6964 267.112 56.6964 264.931C57.4255 266.476 58.2344 269.292 60.0151 270.746C59.2054 263.204 61.0667 254.573 59.9336 249.12C59.286 245.759 56.2109 243.941 55.4021 245.941C52.8931 252.392 52.4076 259.479 50.4656 266.202C49.4946 269.383 50.0607 273.381 52.2464 278.197C49.3325 275.925 47.5527 269.565 47.7139 265.476C48.1188 258.388 51.76 250.029 53.6213 241.125C54.6738 236.309 51.9221 231.402 49.7374 233.219C46.2575 241.033 41.321 248.212 39.2984 256.662C37.9226 262.204 39.2169 265.203 38.8935 270.928C38.812 271.927 38.1653 272.835 37.5983 273.563C37.0322 266.93 36.1418 259.569 36.7894 255.844C38.2459 246.849 40.6734 241.125 41.1589 232.039C41.8065 222.134 35.8185 220.59 34.6853 224.496C31.9336 234.218 30.8014 240.67 28.5352 250.575C26.9972 257.389 28.3731 258.933 28.8586 272.654C28.9401 274.108 31.7724 277.106 32.824 277.925C42.1308 285.556 53.4601 290.1 58.4771 294.006C63.4136 294.006 68.4306 294.006 73.3671 294.006C73.1243 291.917 72.8816 289.827 72.6388 287.737Z" fill="white"/>
    <path fill-rule="evenodd" clip-rule="evenodd" d="M27.5996 252.473C25.0906 248.112 21.2873 243.387 16.9179 241.116C12.5475 236.845 8.09663 233.12 3.40295 232.756C0.166645 232.574 -1.37136 235.482 1.54249 238.663C5.99252 243.569 10.9289 248.112 14.8138 253.564C18.2937 258.38 20.0736 264.468 23.5535 269.283C24.7673 270.919 26.8713 271.464 28.4899 272.554C28.2472 266.012 27.3568 263.195 27.1141 258.47C27.0335 256.471 27.4375 254.472 27.5996 252.473Z" fill="white"/>
    <path fill-rule="evenodd" clip-rule="evenodd" d="M28.2824 246.344C26.7038 243.324 25.2868 240.216 23.5438 237.375C21.8802 234.626 18.6112 230.856 18.0596 229.667C17.2745 227.839 20.0463 226.241 23.9996 227.203C25.6949 227.589 29.3097 229.637 31.6007 233.94C30.405 238.74 29.3845 242.542 28.2824 246.344Z" fill="white"/>
    <path fill-rule="evenodd" clip-rule="evenodd" d="M567.284 364.508L557.735 367.415L530.14 347.244L567.284 364.508Z" fill="white"/>
    <path fill-rule="evenodd" clip-rule="evenodd" d="M398.718 302.448C393.216 303.357 390.141 306.355 389.088 310.444C388.927 310.989 388.927 311.625 389.008 312.261L408.996 307.355L409.32 310.172L389.817 314.896C390.95 317.35 393.134 319.53 394.834 319.803C394.267 319.712 392.973 319.622 392.326 319.622C389.574 318.531 387.632 316.077 387.066 313.443L366.915 298.995L365.621 295.906L386.904 311.353C386.904 310.989 386.904 310.535 387.066 310.172C387.875 306.264 392.892 302.721 396.209 302.357C397.019 302.448 397.91 302.448 398.718 302.448Z" fill="white"/>
    <path fill-rule="evenodd" clip-rule="evenodd" d="M369.505 280.187L355.586 283.549L354.534 281.822L368.939 278.278L369.343 279.096L369.505 280.187ZM373.632 289.819L366.753 286.82L359.632 287.365L358.984 286.184L368.129 285.639L370.718 283.731L370.638 287.184L373.632 289.819ZM348.627 292.09C344.014 292.817 334.626 291.999 327.505 290.091L346.603 286.002L345.632 283.912L323.54 288.819C323.216 288.728 322.974 288.546 322.649 288.455C308.327 282.186 291.008 271.737 287.448 265.285C287.448 266.103 287.448 266.83 287.448 267.648C290.603 273.1 307.84 284.094 322.569 290.182C330.823 293.635 342.8 294.453 349.678 293.998C349.355 293.362 348.95 292.726 348.627 292.09Z" fill="white"/>
    <path fill-rule="evenodd" clip-rule="evenodd" d="M51.0947 85.6992C43.6334 85.6992 37.5213 79.5205 37.5213 71.8885C37.5213 64.347 43.6334 58.1683 51.0947 58.1683C58.6456 58.1683 64.7577 64.347 64.7577 71.8885C64.7577 79.5205 58.6456 85.6992 51.0947 85.6992Z" fill="#FFFEFE"/>
    </g>
    <defs>
    <clipPath id="clip0_78_2">
    <rect width="644" height="650" rx="180" transform="matrix(-1 0 0 1 644 0)" fill="white"/>
    </clipPath>
    </defs>
    </svg>
    