<svg width="36" height="24" viewBox="0 0 36 24" fill="none" xmlns="http://www.w3.org/2000/svg">
<path d="M36 15.9C36 16.8 34.2 17.4 32.1 17.7C30.75 15.15 28.05 13.2 24.9 11.85C25.2 11.4 25.5 11.1 25.8 10.65H27C31.65 10.5 36 13.35 36 15.9V15.9ZM10.2 10.5H9C4.35 10.5 0 13.35 0 15.9C0 16.8 1.8 17.4 3.9 17.7C5.25 15.15 7.95 13.2 11.1 11.85L10.2 10.5V10.5ZM18 12C21.3 12 24 9.3 24 6C24 2.7 21.3 0 18 0C14.7 0 12 2.7 12 6C12 9.3 14.7 12 18 12ZM18 13.5C11.85 13.5 6 17.4 6 21C6 24 18 24 18 24C18 24 30 24 30 21C30 17.4 24.15 13.5 18 13.5ZM26.55 9H27C29.55 9 31.5 7.05 31.5 4.5C31.5 1.95 29.55 0 27 0C26.25 0 25.65 0.15 25.05 0.45C26.25 1.95 27 3.9 27 6C27 7.05 26.85 8.1 26.55 9ZM9 9H9.45C9.15 8.1 9 7.05 9 6C9 3.9 9.75 1.95 10.95 0.45C10.35 0.15 9.75 0 9 0C6.45 0 4.5 1.95 4.5 4.5C4.5 7.05 6.45 9 9 9Z" fill="white"/>
</svg>
