<svg width="46" height="47" viewBox="0 0 46 47" fill="none" xmlns="http://www.w3.org/2000/svg">
<path d="M27.8179 0.0682396C26.6716 0.177606 25.1799 0.468625 23.952 0.814092C22.9513 1.0868 21.0869 1.76929 21.0869 1.85096C21.0869 1.87818 21.3052 2.14198 21.5689 2.44239C22.4786 3.47034 23.2789 5.09863 23.5882 6.57202C23.7976 7.53614 23.7976 9.32824 23.5972 10.2924C22.8513 13.74 20.3772 16.423 17.0389 17.3965C14.3738 18.1696 11.1627 17.5964 9.02513 15.9775C8.61583 15.6682 8.39757 15.5499 8.35203 15.6227C8.31589 15.6771 8.23375 15.9592 8.16991 16.2319L8.06055 16.7412L18.64 27.3296L29.2279 37.9175L29.6283 37.872C30.8928 37.7081 33.6852 36.4985 35.3679 35.3889C40.3528 32.0962 43.9726 27.0386 45.3644 21.4445C47.7202 11.9117 43.3723 3.32483 34.8948 0.760113C32.8389 0.140996 30.001 -0.140636 27.8179 0.0682396Z" fill="#2F011D"/>
<path d="M12.8548 0.841944C10.4445 1.36061 8.49799 2.92507 7.45173 5.18093C6.96075 6.22719 6.80586 6.85475 6.75141 8.07327C6.6059 10.875 7.91595 13.4125 10.2807 14.9591C11.6358 15.8416 13.0914 16.2143 14.8563 16.1415C16.8211 16.0598 18.3583 15.4046 19.8045 14.0401C20.9052 12.9849 21.6511 11.6932 22.0059 10.1925C22.1697 9.51944 22.188 9.2012 22.1514 8.16433C22.1059 6.79983 21.9693 6.19057 21.4966 5.18985C21.0601 4.26187 20.5687 3.57094 19.85 2.87954C18.7493 1.83328 17.6486 1.22402 16.248 0.887472C15.3562 0.678127 13.7189 0.650904 12.8548 0.841944ZM15.0379 4.08914C15.229 4.31632 15.2651 4.43461 15.229 4.65287C15.1379 5.09879 14.9013 5.26213 14.2376 5.34427C12.6732 5.53531 11.5452 6.65432 11.3814 8.16386C11.3087 8.87357 11.0815 9.16459 10.5811 9.16459C10.108 9.16459 9.80804 8.83696 9.80804 8.32768C9.81696 5.97184 11.9367 3.83426 14.2831 3.80704C14.7464 3.79812 14.8192 3.82535 15.0379 4.08914Z" fill="white"/>
<path d="M7.80612 19.5796C7.80612 21.4534 8.19712 23.391 8.94297 25.192C9.64329 26.8747 9.80711 27.5206 9.80711 28.5303C9.80711 31.1137 8.23326 33.5329 5.4592 35.234C3.02122 36.7257 0.774749 38.3723 0.392671 38.9271C-0.0710806 39.6185 -0.125999 40.5188 0.238243 41.2374C0.465425 41.6739 4.91378 46.104 5.3503 46.3312C5.56857 46.4405 5.87789 46.495 6.3055 46.5039C7.02413 46.5039 7.42451 46.3495 7.87888 45.8946C8.36093 45.4309 10.1892 42.8568 11.0355 41.4557C12.5089 39.0182 13.5007 37.9808 15.0834 37.1805C17.0211 36.207 18.54 36.1526 20.5959 36.9806C21.7149 37.4354 22.8518 37.7809 23.7793 37.963C24.68 38.1357 26.5993 38.2723 26.9809 38.1996C27.2719 38.1357 27.1809 38.0451 17.5393 28.403L7.80612 18.6699V19.5796Z" fill="white"/>
</svg>
